<svg xmlns="http://www.w3.org/2000/svg" xmlns:xlink="http://www.w3.org/1999/xlink" width="120" zoomAndPan="magnify" viewBox="0 0 90 52.499999" height="70" preserveAspectRatio="xMidYMid meet" version="1.0"><defs><clipPath id="0f25fd7d8f"><path d="M 0.425781 0 L 89.574219 0 L 89.574219 52.003906 L 0.425781 52.003906 Z M 0.425781 0 " clip-rule="nonzero"/></clipPath><clipPath id="44b7c92f60"><path d="M 15 13 L 89.574219 13 L 89.574219 38 L 15 38 Z M 15 13 " clip-rule="nonzero"/></clipPath><clipPath id="f2ec49e8ee"><path d="M 0.425781 13 L 15 13 L 15 38 L 0.425781 38 Z M 0.425781 13 " clip-rule="nonzero"/></clipPath></defs><g clip-path="url(#0f25fd7d8f)"><path fill="#ffffff" d="M 0.425781 0 L 89.574219 0 L 89.574219 52.003906 L 0.425781 52.003906 Z M 0.425781 0 " fill-opacity="1" fill-rule="nonzero"/><path fill="#ffffff" d="M 0.425781 0 L 89.574219 0 L 89.574219 52.003906 L 0.425781 52.003906 Z M 0.425781 0 " fill-opacity="1" fill-rule="nonzero"/><path fill="#fdfdfd" d="M 0.429688 0 L 89.570312 0 L 89.570312 52.003906 L 0.429688 52.003906 Z M 0.429688 0 " fill-opacity="1" fill-rule="nonzero"/></g><g clip-path="url(#44b7c92f60)"><path fill="#c82923" d="M 31.039062 13.425781 L 31.300781 13.425781 C 31.589844 13.425781 31.882812 13.425781 32.175781 13.425781 L 32.804688 13.425781 C 33.382812 13.425781 33.964844 13.425781 34.542969 13.425781 C 35.167969 13.425781 35.792969 13.425781 36.417969 13.425781 C 37.640625 13.425781 38.867188 13.421875 40.089844 13.421875 C 41.085938 13.421875 42.082031 13.421875 43.078125 13.421875 C 45.902344 13.421875 48.722656 13.421875 51.546875 13.421875 L 52.238281 13.421875 C 54.628906 13.421875 57.023438 13.421875 59.414062 13.417969 C 62.101562 13.417969 64.789062 13.417969 67.480469 13.417969 C 68.902344 13.417969 70.324219 13.417969 71.746094 13.414062 C 72.960938 13.414062 74.171875 13.414062 75.382812 13.414062 C 76.003906 13.414062 76.621094 13.414062 77.238281 13.414062 C 77.804688 13.414062 78.375 13.414062 78.941406 13.414062 C 79.144531 13.414062 79.347656 13.414062 79.554688 13.414062 C 81.144531 13.410156 82.710938 13.488281 84.253906 13.910156 L 84.523438 13.984375 C 85.625 14.296875 86.5 14.800781 87.332031 15.59375 C 87.941406 16.246094 88.34375 16.914062 88.566406 17.78125 C 88.609375 17.984375 88.652344 18.191406 88.691406 18.398438 L 88.75 18.664062 C 88.8125 19.027344 88.8125 19.378906 88.8125 19.75 L 88.816406 20.164062 L 88.800781 20.492188 L 88.691406 20.605469 C 88.476562 20.613281 88.265625 20.617188 88.050781 20.613281 L 87.660156 20.613281 L 87.25 20.609375 L 86.835938 20.609375 C 86.496094 20.609375 86.160156 20.605469 85.820312 20.605469 L 85.796875 20.40625 C 85.761719 20.105469 85.722656 19.804688 85.683594 19.5 L 85.644531 19.191406 C 85.558594 18.53125 85.425781 17.964844 85.046875 17.410156 C 84.835938 17.183594 84.835938 17.183594 84.585938 17.042969 L 84.355469 16.894531 C 83.539062 16.496094 82.707031 16.335938 81.8125 16.234375 L 81.449219 16.191406 C 80.054688 16.042969 78.667969 16.039062 77.269531 16.042969 L 76.425781 16.042969 C 75.839844 16.039062 75.257812 16.042969 74.671875 16.042969 C 74.003906 16.042969 73.332031 16.042969 72.660156 16.042969 C 72.007812 16.039062 71.355469 16.042969 70.703125 16.042969 C 70.425781 16.042969 70.152344 16.042969 69.878906 16.042969 C 67.289062 16 67.289062 16 64.867188 16.824219 C 64.296875 17.183594 63.882812 17.570312 63.546875 18.160156 C 62.46875 20.304688 62.960938 23.429688 62.984375 25.78125 L 62.984375 26.117188 C 62.992188 26.832031 63 27.546875 63.011719 28.257812 C 63.015625 28.492188 63.019531 28.726562 63.023438 28.960938 C 63.023438 29.289062 63.03125 29.621094 63.039062 29.949219 L 63.039062 30.242188 C 63.058594 31.054688 63.234375 31.78125 63.589844 32.511719 L 63.753906 32.777344 L 63.921875 33.050781 C 64.085938 33.300781 64.085938 33.300781 64.417969 33.496094 L 64.417969 33.714844 C 64.796875 33.867188 65.179688 34.015625 65.5625 34.164062 L 65.859375 34.277344 C 66.695312 34.535156 67.546875 34.503906 68.414062 34.503906 L 68.855469 34.507812 C 69.335938 34.511719 69.816406 34.511719 70.300781 34.511719 L 70.800781 34.515625 C 71.582031 34.515625 72.367188 34.515625 73.152344 34.519531 C 74.050781 34.519531 74.953125 34.523438 75.851562 34.527344 C 76.550781 34.53125 77.25 34.53125 77.949219 34.53125 C 78.367188 34.53125 78.78125 34.535156 79.199219 34.535156 C 81.792969 34.628906 81.792969 34.628906 84.230469 33.890625 C 84.460938 33.738281 84.640625 33.582031 84.828125 33.382812 C 84.890625 33.320312 84.953125 33.253906 85.015625 33.1875 C 85.5 32.617188 85.683594 32.015625 85.820312 31.289062 C 85.871094 30.714844 85.886719 30.140625 85.898438 29.5625 C 85.902344 29.410156 85.90625 29.253906 85.910156 29.101562 C 85.917969 28.730469 85.925781 28.359375 85.929688 27.984375 L 85.746094 27.984375 C 84.253906 27.988281 82.765625 27.988281 81.277344 27.992188 C 80.554688 27.992188 79.835938 27.992188 79.113281 27.992188 C 78.421875 27.996094 77.726562 27.996094 77.03125 27.996094 C 76.765625 27.996094 76.5 27.996094 76.234375 27.996094 C 75.863281 27.996094 75.492188 28 75.121094 28 L 74.214844 28 L 74.015625 27.984375 L 73.90625 27.875 C 73.894531 27.695312 73.890625 27.515625 73.890625 27.339844 L 73.890625 25.683594 L 73.90625 25.453125 L 74.015625 25.339844 C 74.210938 25.332031 74.402344 25.328125 74.597656 25.328125 L 75.847656 25.328125 C 76.25 25.324219 76.652344 25.324219 77.054688 25.328125 C 77.472656 25.328125 77.894531 25.328125 78.3125 25.328125 C 79.019531 25.324219 79.722656 25.328125 80.429688 25.328125 C 81.246094 25.328125 82.0625 25.328125 82.878906 25.328125 C 83.578125 25.328125 84.277344 25.324219 84.976562 25.328125 C 85.394531 25.328125 85.816406 25.328125 86.234375 25.328125 C 86.625 25.324219 87.019531 25.328125 87.414062 25.328125 C 87.628906 25.328125 87.839844 25.328125 88.054688 25.328125 L 88.773438 25.328125 L 89.019531 25.339844 L 89.128906 25.453125 C 89.144531 25.785156 89.152344 26.117188 89.152344 26.449219 L 89.15625 26.757812 C 89.15625 26.976562 89.15625 27.195312 89.15625 27.417969 C 89.160156 27.742188 89.160156 28.070312 89.164062 28.398438 C 89.175781 30.445312 89.019531 32.535156 88.070312 34.390625 C 87.605469 35.175781 87.074219 35.742188 86.289062 36.210938 C 85.089844 36.851562 83.800781 37.140625 82.441406 37.144531 L 82.011719 37.148438 L 81.046875 37.148438 C 80.597656 37.152344 80.148438 37.152344 79.699219 37.152344 L 78.855469 37.152344 C 77.972656 37.15625 77.089844 37.15625 76.210938 37.15625 C 75.195312 37.15625 74.179688 37.160156 73.167969 37.164062 C 72.378906 37.164062 71.59375 37.167969 70.808594 37.167969 C 70.339844 37.167969 69.871094 37.167969 69.402344 37.167969 C 68.960938 37.171875 68.519531 37.171875 68.078125 37.171875 C 67.917969 37.167969 67.757812 37.171875 67.59375 37.171875 C 65.886719 37.183594 64.289062 36.949219 62.761719 36.140625 C 61.847656 35.5625 61.152344 34.820312 60.644531 33.867188 C 59.4375 31.269531 59.636719 28.277344 59.644531 25.472656 C 59.644531 25.046875 59.644531 24.617188 59.644531 24.191406 C 59.628906 18.925781 59.628906 18.925781 60.777344 16.636719 L 47.539062 16.636719 L 47.539062 37.242188 L 44.558594 37.242188 L 44.339844 37.019531 C 44.316406 36.753906 44.308594 36.488281 44.3125 36.21875 L 44.3125 35.96875 C 44.3125 35.6875 44.3125 35.40625 44.3125 35.125 L 44.3125 34.523438 C 44.3125 33.976562 44.3125 33.429688 44.316406 32.882812 C 44.316406 32.3125 44.316406 31.742188 44.316406 31.167969 C 44.316406 30.089844 44.320312 29.007812 44.320312 27.925781 C 44.324219 26.464844 44.328125 25.003906 44.328125 23.542969 C 44.328125 21.242188 44.335938 18.9375 44.339844 16.636719 L 30.105469 16.636719 L 29.996094 37.242188 L 25.25 37.242188 L 24.148438 36.140625 L 23.925781 36.027344 L 23.925781 35.808594 L 23.730469 35.71875 C 23.484375 35.585938 23.328125 35.457031 23.132812 35.261719 L 22.929688 35.0625 L 22.710938 34.839844 L 22.480469 34.605469 C 22.222656 34.351562 21.96875 34.097656 21.71875 33.84375 C 21.539062 33.664062 21.363281 33.488281 21.1875 33.3125 C 20.722656 32.847656 20.257812 32.382812 19.792969 31.914062 C 19.320312 31.441406 18.847656 30.96875 18.375 30.492188 C 17.609375 29.726562 16.847656 28.964844 16.082031 28.195312 L 15.707031 27.820312 C 15.589844 27.703125 15.472656 27.59375 15.355469 27.480469 L 15.210938 27.324219 C 15.230469 27.105469 15.230469 27.105469 15.320312 26.882812 C 15.507812 26.640625 15.703125 26.40625 15.90625 26.175781 C 16.015625 26.050781 16.125 25.925781 16.230469 25.804688 L 16.386719 25.625 C 16.589844 25.386719 16.785156 25.144531 16.976562 24.902344 C 17.160156 24.917969 17.160156 24.917969 17.417969 25.011719 C 17.632812 25.199219 17.835938 25.394531 18.035156 25.597656 L 18.210938 25.777344 C 18.398438 25.964844 18.582031 26.15625 18.769531 26.347656 C 19.011719 26.59375 19.257812 26.84375 19.503906 27.089844 L 19.679688 27.273438 C 20.058594 27.652344 20.445312 28.011719 20.855469 28.359375 C 21.246094 28.699219 21.605469 29.074219 21.96875 29.445312 C 22.121094 29.601562 22.273438 29.753906 22.425781 29.910156 L 22.625 30.113281 C 22.824219 30.308594 22.824219 30.308594 23.070312 30.476562 L 23.265625 30.628906 L 23.265625 30.851562 L 23.460938 30.933594 C 23.730469 31.085938 23.90625 31.25 24.121094 31.472656 L 24.359375 31.710938 C 24.519531 31.878906 24.679688 32.046875 24.839844 32.210938 C 25.261719 32.640625 25.691406 33.042969 26.164062 33.414062 L 26.460938 33.648438 L 26.6875 33.824219 L 26.683594 33.546875 C 26.664062 31.316406 26.65625 29.085938 26.65625 26.855469 C 26.652344 25.777344 26.652344 24.699219 26.640625 23.621094 C 26.632812 22.683594 26.628906 21.742188 26.632812 20.800781 C 26.632812 20.304688 26.632812 19.804688 26.625 19.308594 C 26.617188 18.839844 26.617188 18.371094 26.621094 17.902344 C 26.621094 17.730469 26.621094 17.558594 26.617188 17.386719 C 26.601562 16.855469 26.621094 16.375 26.796875 15.867188 C 27.179688 15.382812 27.707031 15.078125 28.230469 14.765625 C 28.402344 14.644531 28.578125 14.519531 28.75 14.394531 C 28.894531 14.296875 29.042969 14.195312 29.1875 14.097656 L 29.417969 13.9375 C 30.011719 13.535156 30.332031 13.425781 31.039062 13.425781 " fill-opacity="1" fill-rule="nonzero"/></g><path fill="#000000" d="M 43.566406 4.078125 C 43.675781 4.523438 43.679688 4.941406 43.675781 5.398438 L 43.425781 5.492188 C 40.863281 6.429688 38.386719 7.480469 35.988281 8.785156 C 35.726562 8.925781 35.46875 9.066406 35.207031 9.203125 C 33.140625 10.3125 31.15625 11.566406 29.222656 12.890625 L 28.96875 13.0625 C 26.027344 15.082031 23.234375 17.296875 20.628906 19.734375 C 20.371094 19.976562 20.101562 20.214844 19.832031 20.445312 C 19.003906 21.160156 18.226562 21.953125 17.515625 22.789062 C 17.292969 23.042969 17.066406 23.289062 16.832031 23.539062 C 16.1875 24.226562 15.578125 24.933594 14.992188 25.671875 L 14.828125 25.875 C 11.730469 29.699219 8.9375 34.125 8.105469 39.042969 C 7.882812 40.695312 8.054688 42.34375 8.660156 43.894531 C 9 44.628906 9.441406 45.167969 10.027344 45.722656 L 10.238281 45.941406 C 11.199219 46.855469 12.480469 47.3125 13.742188 47.648438 C 17.257812 48.457031 21.066406 47.796875 24.480469 46.828125 C 24.675781 46.757812 24.871094 46.6875 25.070312 46.617188 C 26.105469 46.261719 27.042969 46.203125 28.128906 46.222656 C 28.304688 46.222656 28.476562 46.222656 28.648438 46.222656 C 29.097656 46.226562 29.546875 46.230469 29.996094 46.238281 C 30.457031 46.242188 30.917969 46.246094 31.378906 46.25 C 32.277344 46.253906 33.179688 46.265625 34.078125 46.273438 L 34.078125 46.496094 C 30.097656 48.199219 26.128906 49.652344 21.832031 50.351562 L 21.570312 50.394531 C 19.246094 50.769531 16.621094 50.78125 14.328125 50.242188 L 14.089844 50.1875 C 12.183594 49.726562 10.519531 48.875 9.070312 47.546875 C 7.984375 46.449219 7.328125 45 6.9375 43.519531 C 6.414062 41.496094 6.652344 39.242188 7.15625 37.242188 C 8.34375 33.003906 10.527344 29.132812 13.226562 25.671875 L 13.535156 25.269531 C 14.535156 23.984375 15.585938 22.746094 16.695312 21.554688 C 16.886719 21.355469 17.070312 21.152344 17.257812 20.953125 L 17.855469 20.308594 C 18.472656 19.648438 19.105469 19.011719 19.792969 18.421875 C 20.085938 18.164062 20.371094 17.894531 20.65625 17.625 C 21.390625 16.933594 22.144531 16.277344 22.933594 15.644531 C 23.066406 15.539062 23.195312 15.429688 23.328125 15.320312 C 26.320312 12.851562 29.59375 10.613281 32.972656 8.703125 L 33.25 8.546875 C 41.136719 4.078125 41.136719 4.078125 43.566406 4.078125 " fill-opacity="1" fill-rule="nonzero"/><g clip-path="url(#f2ec49e8ee)"><path fill="#c92923" d="M 0.871094 13.664062 C 1.476562 13.617188 2.085938 13.609375 2.695312 13.597656 C 2.902344 13.59375 3.105469 13.589844 3.3125 13.582031 C 4.992188 13.515625 4.992188 13.515625 5.65625 13.851562 C 5.96875 14.097656 6.230469 14.359375 6.496094 14.652344 C 6.675781 14.832031 6.859375 15.007812 7.042969 15.179688 C 7.214844 15.359375 7.390625 15.535156 7.566406 15.714844 C 8.121094 16.285156 8.679688 16.835938 9.285156 17.355469 C 9.507812 17.546875 9.714844 17.75 9.914062 17.960938 C 10.199219 18.246094 10.484375 18.515625 10.792969 18.777344 C 11.121094 19.0625 11.429688 19.359375 11.738281 19.667969 C 12.03125 19.96875 12.332031 20.253906 12.652344 20.527344 C 13.058594 20.878906 13.453125 21.242188 13.839844 21.617188 L 14.023438 21.785156 C 14.191406 21.949219 14.191406 21.949219 14.4375 22.257812 C 14.417969 22.476562 14.417969 22.476562 14.328125 22.695312 C 14.140625 22.941406 13.945312 23.175781 13.742188 23.40625 C 13.636719 23.53125 13.527344 23.652344 13.421875 23.777344 L 13.265625 23.957031 C 13.0625 24.191406 12.867188 24.4375 12.675781 24.679688 C 12.480469 24.652344 12.480469 24.652344 12.234375 24.570312 C 12.015625 24.386719 12.015625 24.386719 11.785156 24.152344 L 11.53125 23.894531 L 11.265625 23.621094 C 10.714844 23.050781 10.160156 22.5 9.554688 21.980469 C 9.316406 21.773438 9.089844 21.550781 8.867188 21.320312 C 8.566406 21.011719 8.257812 20.71875 7.929688 20.4375 C 7.601562 20.15625 7.296875 19.863281 6.992188 19.558594 C 6.695312 19.257812 6.398438 18.96875 6.074219 18.695312 C 5.605469 18.292969 5.171875 17.855469 4.746094 17.40625 C 4.484375 17.140625 4.316406 16.976562 3.957031 16.859375 L 3.847656 37.128906 L 0.757812 37.128906 C 0.621094 36.710938 0.636719 36.324219 0.640625 35.886719 L 0.640625 35.601562 C 0.640625 35.285156 0.640625 34.96875 0.644531 34.648438 L 0.648438 33.96875 C 0.648438 33.351562 0.652344 32.738281 0.65625 32.121094 C 0.660156 31.476562 0.664062 30.832031 0.664062 30.1875 C 0.671875 29.105469 0.675781 28.023438 0.679688 26.941406 C 0.6875 25.691406 0.695312 24.4375 0.699219 23.183594 C 0.703125 22.113281 0.707031 21.039062 0.714844 19.964844 C 0.71875 19.324219 0.71875 18.679688 0.722656 18.039062 C 0.726562 17.433594 0.730469 16.832031 0.734375 16.230469 C 0.734375 16.007812 0.734375 15.785156 0.734375 15.5625 C 0.738281 15.261719 0.738281 14.960938 0.742188 14.65625 L 0.742188 14.386719 C 0.742188 14.183594 0.75 13.976562 0.757812 13.773438 Z M 0.871094 13.664062 " fill-opacity="1" fill-rule="nonzero"/></g><path fill="#000000" d="M 58.460938 21.59375 L 58.679688 21.59375 C 58.707031 22.277344 58.722656 22.957031 58.734375 23.640625 C 58.738281 23.871094 58.746094 24.105469 58.753906 24.335938 C 58.824219 26.191406 58.824219 26.191406 58.59375 26.777344 C 58.355469 27.203125 58.03125 27.535156 57.6875 27.875 C 57.558594 28.035156 57.429688 28.195312 57.304688 28.355469 C 57.183594 28.5 57.0625 28.648438 56.941406 28.792969 L 56.746094 29.027344 C 54.933594 31.203125 54.933594 31.203125 54.019531 32.089844 C 53.816406 32.292969 53.628906 32.503906 53.441406 32.722656 C 52.859375 33.394531 52.226562 34.003906 51.554688 34.582031 C 51.203125 34.894531 50.859375 35.214844 50.515625 35.53125 C 49.617188 36.367188 49.617188 36.367188 49.21875 36.722656 L 49.023438 36.902344 L 48.863281 37.019531 L 48.640625 37.019531 C 48.628906 36.449219 48.617188 35.878906 48.609375 35.308594 C 48.609375 35.113281 48.605469 34.921875 48.597656 34.726562 C 48.59375 34.449219 48.589844 34.167969 48.585938 33.890625 L 48.578125 33.628906 C 48.578125 33.386719 48.585938 33.175781 48.640625 32.945312 C 48.90625 32.621094 48.90625 32.621094 49.191406 32.394531 L 49.382812 32.199219 C 49.703125 31.871094 50.03125 31.558594 50.378906 31.261719 C 51.183594 30.570312 51.929688 29.808594 52.621094 29 C 52.84375 28.746094 53.074219 28.496094 53.308594 28.246094 C 53.855469 27.660156 54.382812 27.066406 54.886719 26.441406 C 55.082031 26.199219 55.277344 25.960938 55.476562 25.722656 C 56.503906 24.488281 57.523438 23.199219 58.324219 21.804688 Z M 58.460938 21.59375 " fill-opacity="1" fill-rule="nonzero"/><path fill="#e0451d" d="M 49.035156 0.730469 C 49.796875 1.035156 50.421875 1.480469 50.933594 2.125 C 51.277344 2.609375 51.476562 3.089844 51.535156 3.679688 C 51.558594 4.476562 51.441406 5.132812 51.066406 5.839844 C 50.714844 6.351562 50.316406 6.792969 49.773438 7.101562 C 49.101562 7.382812 48.386719 7.507812 47.660156 7.480469 C 47.015625 7.390625 46.523438 7.191406 46 6.804688 C 45.488281 6.371094 45.050781 5.917969 44.792969 5.289062 C 44.574219 4.582031 44.523438 4.03125 44.675781 3.304688 C 44.851562 2.675781 45.105469 2.234375 45.550781 1.761719 L 45.722656 1.578125 C 46.164062 1.152344 46.644531 0.925781 47.222656 0.738281 C 47.847656 0.585938 48.40625 0.621094 49.035156 0.730469 " fill-opacity="1" fill-rule="nonzero"/><path fill="#000000" d="M 52.28125 2.3125 C 54.847656 2.261719 57.667969 2.371094 59.976562 3.632812 C 60.882812 4.15625 61.6875 4.769531 62.433594 5.507812 L 62.640625 5.714844 C 63.503906 6.625 64.113281 7.789062 64.445312 8.996094 C 64.691406 10.105469 64.785156 11.203125 64.75 12.339844 C 63.980469 12.484375 63.210938 12.460938 62.433594 12.449219 C 62.34375 12.144531 62.3125 11.882812 62.320312 11.566406 C 62.363281 9.9375 62.230469 8.542969 61.441406 7.078125 C 60.730469 5.9375 59.765625 5.183594 58.597656 4.550781 C 56.671875 3.632812 54.589844 3.589844 52.503906 3.527344 Z M 47.316406 42.089844 C 47.632812 42.078125 47.953125 42.074219 48.269531 42.078125 L 48.558594 42.078125 C 48.863281 42.078125 49.167969 42.082031 49.476562 42.082031 C 49.683594 42.082031 49.886719 42.082031 50.09375 42.082031 C 50.605469 42.085938 51.113281 42.085938 51.621094 42.089844 C 51.808594 42.527344 51.988281 42.933594 52.082031 43.402344 L 52.132812 43.660156 L 52.171875 43.851562 L 52.390625 43.742188 C 52.492188 43.507812 52.582031 43.269531 52.667969 43.03125 C 52.921875 42.332031 52.921875 42.332031 53.164062 42.089844 C 53.507812 42.074219 53.507812 42.074219 53.824219 42.089844 C 54.488281 43.351562 54.488281 43.351562 54.488281 44.070312 L 54.707031 44.070312 L 54.746094 43.859375 C 54.855469 43.261719 54.992188 42.742188 55.261719 42.199219 L 55.371094 42.089844 C 55.589844 42.085938 55.8125 42.082031 56.03125 42.089844 L 56.144531 42.417969 C 56.039062 42.855469 55.878906 43.273438 55.730469 43.691406 L 55.609375 44.050781 L 55.488281 44.390625 L 55.378906 44.699219 L 55.261719 44.953125 L 54.929688 45.171875 L 54.15625 45.0625 L 53.496094 43.410156 C 53.269531 43.75 53.164062 44.039062 53.039062 44.421875 L 52.921875 44.785156 L 52.832031 45.0625 L 51.730469 45.0625 C 51.480469 44.507812 51.285156 43.953125 51.109375 43.371094 C 50.992188 42.855469 50.992188 42.855469 50.738281 42.417969 L 50.625 42.859375 L 49.414062 42.859375 L 49.414062 45.0625 L 48.53125 45.0625 L 48.421875 44.953125 C 48.410156 44.796875 48.40625 44.640625 48.410156 44.484375 L 48.410156 44.199219 L 48.414062 43.898438 L 48.414062 43.597656 C 48.417969 43.351562 48.417969 43.105469 48.421875 42.859375 L 47.207031 42.859375 C 47.203125 42.640625 47.203125 42.417969 47.207031 42.199219 Z M 47.316406 42.089844 " fill-opacity="1" fill-rule="nonzero"/><path fill="#ea7d5f" d="M 49.304688 0.992188 C 49.863281 1.117188 50.222656 1.375 50.636719 1.753906 C 51.019531 2.171875 51.296875 2.648438 51.464844 3.1875 C 51.589844 3.847656 51.5625 4.539062 51.390625 5.183594 C 51.296875 5.425781 51.296875 5.425781 51.179688 5.621094 C 50.855469 5.8125 50.855469 5.8125 50.652344 5.84375 C 50.09375 5.835938 49.59375 5.726562 49.082031 5.507812 C 48.605469 5.167969 48.28125 4.800781 48.035156 4.269531 C 47.980469 3.964844 47.980469 3.964844 47.980469 3.527344 L 47.757812 3.527344 C 47.8125 2.882812 47.96875 2.316406 48.308594 1.761719 C 48.644531 1.492188 48.898438 1.347656 49.304688 1.210938 Z M 49.304688 0.992188 " fill-opacity="1" fill-rule="nonzero"/><path fill="#000000" d="M 58.328125 42.0625 L 58.695312 42.054688 L 59.046875 42.050781 L 59.371094 42.050781 C 59.726562 42.09375 59.933594 42.214844 60.226562 42.417969 L 60.335938 42.527344 C 60.367188 42.871094 60.367188 43.214844 60.371094 43.554688 L 60.378906 43.84375 C 60.382812 44.109375 60.378906 44.359375 60.335938 44.621094 C 60.140625 44.902344 60.140625 44.902344 59.894531 45.0625 C 59.390625 45.21875 58.886719 45.199219 58.363281 45.199219 C 58.21875 45.203125 58.21875 45.203125 58.066406 45.207031 C 57.609375 45.210938 57.289062 45.191406 56.859375 45.019531 C 56.585938 44.84375 56.585938 44.84375 56.363281 44.621094 C 56.3125 44.300781 56.324219 43.972656 56.324219 43.644531 L 56.3125 43.371094 C 56.3125 43.121094 56.320312 42.886719 56.363281 42.640625 C 56.890625 41.945312 57.523438 42.066406 58.328125 42.0625 M 15.761719 42.089844 C 16.148438 42.074219 16.148438 42.074219 16.535156 42.089844 L 16.644531 42.199219 C 16.664062 42.355469 16.671875 42.511719 16.679688 42.667969 L 16.695312 42.953125 L 16.707031 43.253906 L 16.722656 43.554688 C 16.734375 43.800781 16.746094 44.046875 16.757812 44.292969 L 18.632812 44.402344 L 18.742188 44.84375 L 18.871094 44.601562 C 19.0625 44.242188 19.253906 43.886719 19.445312 43.527344 L 19.648438 43.148438 L 19.839844 42.789062 L 20.019531 42.453125 L 20.175781 42.199219 C 20.5 42.039062 20.777344 42.019531 21.136719 42.023438 C 21.390625 42.089844 21.390625 42.089844 21.570312 42.25 C 21.753906 42.519531 21.902344 42.792969 22.050781 43.082031 C 22.128906 43.222656 22.210938 43.363281 22.289062 43.503906 C 22.933594 44.667969 22.933594 44.667969 22.933594 45.0625 L 21.941406 45.0625 L 21.832031 44.621094 C 21.523438 44.632812 21.214844 44.644531 20.90625 44.65625 L 20.640625 44.664062 C 20.414062 44.675781 20.183594 44.703125 19.957031 44.734375 L 19.734375 45.0625 C 19.429688 45.09375 19.125 45.101562 18.820312 45.09375 L 18.546875 45.09375 C 18.257812 45.09375 17.96875 45.089844 17.679688 45.085938 C 17.484375 45.082031 17.289062 45.082031 17.09375 45.078125 C 16.613281 45.074219 16.132812 45.070312 15.652344 45.0625 C 15.648438 44.589844 15.648438 44.113281 15.644531 43.636719 L 15.644531 43.226562 L 15.640625 42.835938 L 15.640625 42.472656 L 15.652344 42.199219 Z M 60.996094 42.089844 C 61.425781 42.0625 61.855469 42.066406 62.285156 42.066406 L 62.652344 42.0625 C 63.785156 42.0625 63.785156 42.0625 64.308594 42.308594 L 64.527344 42.527344 C 64.5625 42.777344 64.5625 42.777344 64.5625 43.066406 L 64.566406 43.355469 C 64.527344 43.632812 64.527344 43.632812 64.359375 43.886719 L 64.195312 44.070312 L 64.527344 44.183594 L 64.527344 45.0625 L 63.644531 45.0625 L 63.535156 44.511719 L 61.992188 44.402344 L 61.878906 45.0625 L 60.886719 45.0625 C 60.882812 44.589844 60.882812 44.113281 60.878906 43.636719 L 60.878906 43.226562 L 60.875 42.835938 L 60.875 42.472656 L 60.886719 42.199219 Z M 23.484375 42.089844 C 23.917969 42.0625 24.351562 42.066406 24.78125 42.066406 L 25.148438 42.0625 L 25.832031 42.0625 C 26.234375 42.097656 26.542969 42.222656 26.886719 42.433594 C 27.015625 42.640625 27.015625 42.640625 27.058594 43.066406 C 27.046875 43.398438 27.007812 43.542969 26.851562 43.851562 L 26.6875 44.070312 L 26.90625 44.070312 C 27.070312 44.398438 27.023438 44.703125 27.015625 45.0625 L 26.023438 45.0625 L 26.023438 44.402344 L 24.257812 44.402344 L 24.257812 45.0625 L 23.375 45.0625 C 23.371094 44.589844 23.371094 44.113281 23.371094 43.636719 L 23.367188 43.226562 L 23.363281 42.835938 L 23.363281 42.472656 L 23.375 42.199219 Z M 70.097656 42.039062 C 70.429688 42.019531 70.757812 42.019531 71.09375 42.027344 L 71.4375 42.023438 C 71.945312 42.027344 72.269531 42.035156 72.714844 42.292969 L 72.914062 42.527344 C 72.945312 42.832031 72.945312 42.832031 72.914062 43.082031 C 72.609375 43.09375 72.609375 43.09375 72.25 43.082031 L 72.054688 42.96875 C 71.714844 42.816406 71.433594 42.839844 71.066406 42.847656 L 70.671875 42.851562 L 70.375 42.859375 L 70.265625 43.191406 L 70.679688 43.183594 C 70.859375 43.179688 71.042969 43.179688 71.222656 43.175781 L 71.496094 43.171875 C 71.878906 43.167969 72.203125 43.175781 72.578125 43.28125 C 72.800781 43.410156 72.800781 43.410156 73.023438 43.742188 C 73.046875 44.058594 73.0625 44.3125 73.023438 44.621094 C 72.886719 44.890625 72.886719 44.890625 72.691406 45.0625 C 72.207031 45.21875 71.71875 45.195312 71.214844 45.195312 L 70.9375 45.199219 C 70.414062 45.199219 69.980469 45.167969 69.492188 44.953125 C 69.332031 44.746094 69.332031 44.746094 69.273438 44.511719 C 69.3125 44.265625 69.3125 44.265625 69.382812 44.070312 L 70.15625 44.070312 L 70.265625 44.402344 L 72.03125 44.402344 L 72.03125 43.960938 L 71.726562 43.96875 C 70.949219 43.980469 70.234375 43.988281 69.492188 43.742188 C 69.324219 43.476562 69.269531 43.292969 69.222656 42.976562 C 69.273438 42.640625 69.273438 42.640625 69.472656 42.347656 C 69.824219 42.089844 69.824219 42.089844 70.097656 42.039062 M 39.042969 42.089844 C 39.300781 42.058594 39.300781 42.058594 39.621094 42.046875 L 39.941406 42.03125 C 40.257812 42.089844 40.257812 42.089844 40.539062 42.328125 C 40.894531 42.742188 41.234375 43.164062 41.570312 43.59375 C 41.785156 43.875 41.785156 43.875 42.132812 43.960938 L 42.132812 42.089844 L 42.902344 42.089844 L 43.015625 42.199219 C 43.023438 42.410156 43.027344 42.625 43.023438 42.835938 L 43.023438 43.226562 L 43.019531 43.636719 L 43.019531 44.050781 C 43.019531 44.386719 43.015625 44.726562 43.015625 45.0625 C 42.53125 45.097656 42.0625 45.113281 41.578125 45.0625 C 41.242188 44.816406 41.242188 44.816406 41.027344 44.492188 C 40.710938 44.03125 40.445312 43.710938 40.035156 43.300781 L 39.925781 45.0625 L 38.933594 45.0625 C 38.929688 44.589844 38.925781 44.113281 38.925781 43.636719 L 38.921875 43.226562 L 38.921875 42.835938 L 38.917969 42.472656 L 38.933594 42.199219 Z M 77.855469 42.046875 L 78.140625 42.03125 C 78.429688 42.089844 78.429688 42.089844 78.707031 42.328125 C 79.066406 42.738281 79.40625 43.164062 79.742188 43.59375 C 79.957031 43.875 79.957031 43.875 80.304688 43.960938 L 80.304688 42.089844 L 81.078125 42.089844 L 81.1875 42.199219 C 81.195312 42.410156 81.199219 42.625 81.199219 42.835938 L 81.195312 43.226562 L 81.195312 43.636719 L 81.191406 44.050781 C 81.191406 44.386719 81.191406 44.726562 81.1875 45.0625 C 80.703125 45.105469 80.238281 45.121094 79.753906 45.0625 C 79.445312 44.886719 79.277344 44.667969 79.085938 44.375 C 78.988281 44.246094 78.894531 44.117188 78.796875 43.988281 L 78.539062 43.632812 L 78.097656 43.191406 L 78.097656 45.0625 L 77.105469 45.0625 L 77.105469 42.199219 C 77.371094 42.066406 77.5625 42.058594 77.855469 42.046875 M 43.675781 42.089844 C 43.902344 42.078125 44.132812 42.074219 44.359375 42.074219 L 45 42.074219 C 45.21875 42.074219 45.441406 42.074219 45.664062 42.074219 L 46.472656 42.074219 L 46.765625 42.089844 L 46.875 42.199219 L 46.875 42.859375 L 44.558594 42.859375 L 44.558594 43.300781 L 46.65625 43.300781 L 46.765625 43.851562 L 46.65625 43.960938 C 46.5 43.96875 46.34375 43.972656 46.1875 43.972656 L 45.898438 43.972656 L 45.601562 43.96875 L 45.296875 43.96875 C 45.050781 43.964844 44.804688 43.964844 44.558594 43.960938 L 44.558594 44.292969 L 46.875 44.402344 L 46.875 45.0625 L 43.566406 45.0625 L 43.558594 43.636719 L 43.554688 43.1875 L 43.554688 42.472656 L 43.566406 42.199219 Z M 83.71875 42.066406 L 84.054688 42.0625 L 84.671875 42.0625 C 84.960938 42.089844 85.136719 42.15625 85.378906 42.308594 C 85.523438 42.515625 85.523438 42.515625 85.601562 42.75 C 85.558594 42.996094 85.558594 42.996094 85.488281 43.191406 C 85.117188 43.203125 85.117188 43.203125 84.71875 43.191406 L 84.496094 42.96875 C 84.21875 42.953125 83.9375 42.949219 83.65625 42.957031 L 83.417969 42.960938 C 83.226562 42.960938 83.035156 42.964844 82.84375 42.96875 L 82.84375 44.183594 C 83.195312 44.300781 83.46875 44.3125 83.84375 44.320312 L 84.199219 44.328125 L 84.496094 44.292969 L 84.71875 43.960938 C 85.117188 43.941406 85.117188 43.941406 85.488281 43.960938 C 85.574219 44.203125 85.574219 44.203125 85.601562 44.511719 C 85.414062 44.816406 85.414062 44.816406 85.160156 45.0625 C 84.695312 45.214844 84.226562 45.199219 83.746094 45.199219 L 83.484375 45.207031 C 83.058594 45.210938 82.695312 45.1875 82.296875 45.035156 C 81.960938 44.84375 81.960938 44.84375 81.804688 44.652344 C 81.710938 44.292969 81.699219 43.953125 81.699219 43.582031 L 81.6875 43.148438 C 81.738281 42.75 81.738281 42.75 81.941406 42.429688 C 82.433594 41.953125 83.074219 42.066406 83.71875 42.066406 M 13.261719 42.054688 L 13.609375 42.042969 C 13.929688 42.042969 14.234375 42.046875 14.550781 42.089844 C 14.902344 42.292969 14.902344 42.292969 15.101562 42.527344 C 15.144531 42.824219 15.144531 42.824219 15.101562 43.082031 L 14.992188 43.191406 C 14.613281 43.210938 14.613281 43.210938 14.21875 43.191406 L 14 42.96875 C 13.632812 42.9375 13.632812 42.9375 13.21875 42.949219 L 12.792969 42.953125 L 12.453125 42.96875 L 12.34375 43.082031 C 12.335938 43.285156 12.332031 43.488281 12.335938 43.691406 L 12.339844 44.03125 L 12.34375 44.292969 C 12.613281 44.300781 12.886719 44.308594 13.15625 44.3125 L 13.390625 44.320312 C 13.640625 44.328125 13.640625 44.328125 14 44.292969 L 14.21875 43.960938 C 14.433594 43.929688 14.433594 43.929688 14.675781 43.941406 L 15.101562 43.960938 C 15.210938 44.292969 15.210938 44.292969 15.15625 44.566406 L 14.992188 44.84375 C 14.390625 45.167969 13.894531 45.226562 13.21875 45.214844 L 12.960938 45.21875 C 12.535156 45.214844 12.253906 45.179688 11.855469 45.019531 C 11.570312 44.84375 11.570312 44.84375 11.351562 44.621094 C 11.296875 44.300781 11.308594 43.972656 11.308594 43.644531 L 11.300781 43.371094 C 11.300781 43.121094 11.304688 42.886719 11.351562 42.640625 C 11.867188 41.957031 12.46875 42.0625 13.261719 42.054688 M 65.960938 42.089844 L 66.074219 42.199219 C 66.097656 42.367188 66.117188 42.535156 66.132812 42.703125 L 66.164062 42.976562 L 66.183594 43.191406 C 66.621094 42.957031 66.96875 42.742188 67.320312 42.390625 C 67.507812 42.21875 67.507812 42.21875 67.726562 42.089844 C 68.101562 42.035156 68.453125 42.046875 68.832031 42.089844 C 68.441406 42.570312 68.039062 42.992188 67.554688 43.382812 C 67.382812 43.515625 67.382812 43.515625 67.285156 43.742188 L 67.46875 43.824219 C 67.777344 43.988281 68.035156 44.1875 68.304688 44.402344 L 68.605469 44.636719 L 68.832031 44.84375 L 68.832031 45.0625 C 68.445312 45.132812 68.113281 45.140625 67.726562 45.0625 C 67.347656 44.832031 67.027344 44.582031 66.6875 44.300781 C 66.414062 44.054688 66.414062 44.054688 66.074219 43.960938 L 66.074219 45.0625 L 65.078125 45.0625 L 65.078125 42.199219 C 65.40625 42.089844 65.625 42.070312 65.960938 42.089844 " fill-opacity="1" fill-rule="nonzero"/><path fill="#eb9c82" d="M 50.199219 2.105469 L 50.40625 2.203125 L 50.566406 2.429688 L 50.738281 2.644531 C 51.027344 2.679688 51.027344 2.679688 51.289062 2.644531 C 51.378906 3.152344 51.425781 3.574219 51.289062 4.078125 C 51.101562 4.355469 50.898438 4.4375 50.597656 4.601562 C 50.183594 4.738281 50.183594 4.738281 49.785156 4.738281 C 49.414062 4.628906 49.414062 4.628906 49.089844 4.421875 C 48.863281 4.078125 48.863281 4.078125 48.808594 3.789062 C 48.792969 3.464844 48.800781 3.183594 48.863281 2.863281 C 49.113281 2.511719 49.316406 2.363281 49.695312 2.164062 C 49.964844 2.09375 49.964844 2.09375 50.199219 2.105469 " fill-opacity="1" fill-rule="nonzero"/><path fill="#e25b38" d="M 47.539062 1.761719 L 47.867188 1.875 L 47.867188 2.09375 L 48.089844 2.09375 L 47.984375 2.5625 L 47.925781 2.824219 C 47.875 3.058594 47.816406 3.292969 47.757812 3.527344 L 47.980469 3.527344 L 48.023438 3.738281 C 48.148438 4.238281 48.285156 4.667969 48.621094 5.0625 C 49 5.402344 49.382812 5.503906 49.875 5.621094 C 50.382812 5.71875 50.382812 5.71875 50.894531 5.679688 L 51.066406 5.621094 C 50.960938 5.941406 50.859375 6.15625 50.632812 6.414062 C 49.941406 7.027344 49.941406 7.027344 49.460938 7.160156 L 49.191406 7.160156 L 48.972656 6.832031 L 49.304688 6.722656 L 49.523438 6.832031 C 49.640625 6.542969 49.640625 6.542969 49.632812 6.390625 L 49.421875 6.320312 C 48.710938 6.066406 48.144531 5.761719 47.648438 5.179688 C 47.367188 4.722656 47.214844 4.328125 47.179688 3.792969 L 47.207031 3.527344 L 47.425781 3.636719 C 47.433594 3.25 47.433594 2.894531 47.359375 2.511719 C 47.316406 2.203125 47.316406 2.203125 47.421875 1.941406 Z M 47.539062 1.761719 " fill-opacity="1" fill-rule="nonzero"/><path fill="#000000" d="M 32.421875 42.089844 C 32.808594 42.023438 33.144531 42.007812 33.527344 42.089844 C 33.800781 42.320312 34.003906 42.5625 34.222656 42.851562 L 34.410156 43.082031 L 34.738281 43.191406 L 34.808594 43.011719 C 35.023438 42.636719 35.261719 42.328125 35.621094 42.089844 C 35.9375 42.03125 36.179688 42.054688 36.503906 42.089844 C 36.488281 42.269531 36.488281 42.269531 36.394531 42.527344 C 36.144531 42.8125 35.886719 43.078125 35.617188 43.34375 C 35.34375 43.625 35.1875 43.820312 35.089844 44.203125 L 35.070312 44.511719 C 35.035156 44.695312 34.996094 44.878906 34.960938 45.0625 L 34.078125 45.0625 L 34.089844 44.859375 C 34.085938 44.539062 34.054688 44.273438 33.96875 43.960938 C 33.742188 43.648438 33.496094 43.390625 33.226562 43.117188 C 32.914062 42.796875 32.671875 42.460938 32.421875 42.089844 M 29.113281 42.089844 C 29.351562 42.078125 29.585938 42.078125 29.824219 42.078125 L 30.261719 42.078125 L 30.71875 42.082031 C 30.875 42.082031 31.027344 42.082031 31.179688 42.082031 C 31.558594 42.085938 31.933594 42.085938 32.3125 42.089844 L 32.421875 42.859375 L 31.097656 42.859375 L 31.097656 45.0625 L 30.214844 45.0625 L 30.105469 42.96875 L 29.003906 42.859375 C 28.996094 42.640625 29 42.417969 29.003906 42.199219 Z M 29.113281 42.089844 " fill-opacity="1" fill-rule="nonzero"/><path fill="#fefefe" d="M 57.46875 42.859375 C 57.761719 42.828125 58.054688 42.820312 58.347656 42.824219 L 58.597656 42.824219 C 58.808594 42.828125 59.019531 42.84375 59.230469 42.859375 L 59.453125 43.082031 C 59.476562 43.3125 59.476562 43.3125 59.472656 43.574219 L 59.472656 43.839844 C 59.453125 44.070312 59.453125 44.070312 59.34375 44.292969 C 58.988281 44.410156 58.722656 44.421875 58.347656 44.421875 L 57.996094 44.425781 C 57.6875 44.402344 57.6875 44.402344 57.355469 44.183594 C 57.292969 43.957031 57.292969 43.957031 57.265625 43.691406 L 57.238281 43.433594 L 57.246094 43.191406 Z M 57.46875 42.859375 " fill-opacity="1" fill-rule="nonzero"/><path fill="#000000" d="M 75.671875 42.089844 C 76.058594 42.074219 76.058594 42.074219 76.441406 42.089844 L 76.554688 42.199219 C 76.5625 42.410156 76.566406 42.625 76.5625 42.835938 L 76.5625 43.226562 L 76.558594 43.636719 L 76.558594 44.050781 C 76.558594 44.386719 76.554688 44.726562 76.554688 45.0625 L 75.5625 45.0625 C 75.558594 44.589844 75.554688 44.113281 75.554688 43.636719 L 75.550781 43.226562 L 75.550781 42.835938 L 75.546875 42.472656 L 75.5625 42.199219 Z M 27.679688 42.089844 C 27.9375 42.121094 28.195312 42.15625 28.449219 42.199219 C 28.558594 42.824219 28.574219 43.429688 28.566406 44.066406 L 28.566406 44.355469 C 28.566406 44.59375 28.5625 44.828125 28.5625 45.0625 L 27.566406 45.0625 C 27.566406 44.589844 27.5625 44.113281 27.5625 43.636719 L 27.558594 43.226562 L 27.558594 42.835938 L 27.554688 42.472656 L 27.566406 42.199219 Z M 27.679688 42.089844 " fill-opacity="1" fill-rule="nonzero"/><path fill="#fefefe" d="M 24.367188 42.859375 C 24.625 42.847656 24.882812 42.84375 25.140625 42.847656 L 25.570312 42.84375 L 25.914062 42.859375 L 26.023438 42.96875 C 26.027344 43.152344 26.027344 43.335938 26.023438 43.519531 C 25.660156 43.640625 25.390625 43.640625 25.011719 43.636719 L 24.648438 43.636719 L 24.367188 43.632812 C 24.328125 43.410156 24.289062 43.191406 24.257812 42.96875 Z M 61.878906 42.859375 C 62.132812 42.855469 62.386719 42.855469 62.636719 42.851562 L 63.066406 42.847656 C 63.425781 42.859375 63.425781 42.859375 63.644531 42.96875 L 63.535156 43.519531 C 63.191406 43.636719 62.945312 43.644531 62.582031 43.644531 L 62.253906 43.644531 L 61.992188 43.632812 L 61.878906 43.519531 C 61.875 43.300781 61.875 43.082031 61.878906 42.859375 " fill-opacity="1" fill-rule="nonzero"/><path fill="#b13430" d="M 29.996094 36.910156 L 29.996094 37.242188 L 25.25 37.242188 L 25.25 37.019531 L 29.058594 36.925781 C 29.75 36.910156 29.75 36.910156 29.996094 36.910156 " fill-opacity="1" fill-rule="nonzero"/><path fill="#e25b38" d="M 48.863281 0.769531 L 49.414062 0.882812 C 49.304688 1.210938 49.304688 1.210938 49.128906 1.363281 L 48.921875 1.507812 L 48.71875 1.652344 L 48.53125 1.761719 L 48.308594 1.761719 L 48.199219 2.09375 C 47.980469 1.875 47.980469 1.875 47.757812 1.542969 C 48 1.320312 48 1.320312 48.308594 1.101562 C 48.621094 1.074219 48.621094 1.074219 48.863281 1.101562 Z M 48.863281 0.769531 " fill-opacity="1" fill-rule="nonzero"/><path fill="#b13430" d="M 47.539062 36.910156 L 47.539062 37.242188 L 44.558594 37.242188 L 44.449219 37.019531 L 46.277344 36.949219 L 46.667969 36.933594 L 47.027344 36.921875 C 47.199219 36.914062 47.367188 36.910156 47.539062 36.910156 " fill-opacity="1" fill-rule="nonzero"/><path fill="#000000" d="M 86.371094 44.292969 L 87.253906 44.292969 L 87.253906 45.0625 L 86.371094 45.0625 Z M 86.371094 44.292969 " fill-opacity="1" fill-rule="nonzero"/><path fill="#fefefe" d="M 20.726562 42.96875 L 21.058594 43.082031 C 21.246094 43.347656 21.246094 43.347656 21.390625 43.632812 L 21.390625 43.851562 L 20.398438 43.851562 C 20.484375 43.507812 20.566406 43.273438 20.726562 42.96875 " fill-opacity="1" fill-rule="nonzero"/><path fill="#e1532f" d="M 47.539062 1.761719 L 47.867188 1.875 C 47.839844 2.09375 47.800781 2.316406 47.757812 2.535156 L 47.539062 2.753906 L 47.316406 2.644531 C 47.414062 2.011719 47.414062 2.011719 47.539062 1.761719 " fill-opacity="1" fill-rule="nonzero"/><path fill="#e1512c" d="M 49.964844 6.722656 L 49.855469 7.050781 L 49.191406 7.160156 L 48.972656 6.832031 C 49.296875 6.667969 49.605469 6.714844 49.964844 6.722656 " fill-opacity="1" fill-rule="nonzero"/></svg>