<svg xmlns="http://www.w3.org/2000/svg" xmlns:xlink="http://www.w3.org/1999/xlink" width="120" zoomAndPan="magnify" viewBox="0 0 90 52.499999" height="70" preserveAspectRatio="xMidYMid meet" version="1.0"><defs><clipPath id="466f372672"><path d="M 0.425781 0 L 89.574219 0 L 89.574219 51.929688 L 0.425781 51.929688 Z M 0.425781 0 " clip-rule="nonzero"/></clipPath><clipPath id="47cbfee80c"><path d="M 15 13 L 89.574219 13 L 89.574219 38 L 15 38 Z M 15 13 " clip-rule="nonzero"/></clipPath><clipPath id="eeea77a823"><path d="M 0.425781 13 L 15 13 L 15 38 L 0.425781 38 Z M 0.425781 13 " clip-rule="nonzero"/></clipPath></defs><g clip-path="url(#466f372672)"><path fill="#fdfdfd" d="M 0.429688 -0.0742188 L 89.570312 -0.0742188 L 89.570312 51.929688 L 0.429688 51.929688 Z M 0.429688 -0.0742188 " fill-opacity="1" fill-rule="nonzero"/></g><g clip-path="url(#47cbfee80c)"><path fill="#c82923" d="M 31.039062 13.355469 L 31.300781 13.355469 C 31.589844 13.351562 31.882812 13.351562 32.175781 13.355469 L 32.804688 13.351562 C 33.382812 13.351562 33.964844 13.351562 34.542969 13.351562 C 35.167969 13.351562 35.792969 13.351562 36.417969 13.351562 C 37.640625 13.351562 38.867188 13.351562 40.089844 13.351562 C 41.085938 13.351562 42.082031 13.351562 43.078125 13.347656 C 45.902344 13.347656 48.722656 13.347656 51.546875 13.347656 L 52.238281 13.347656 C 54.628906 13.347656 57.023438 13.347656 59.414062 13.347656 C 62.101562 13.34375 64.789062 13.34375 67.480469 13.34375 C 68.902344 13.34375 70.324219 13.34375 71.746094 13.339844 C 72.960938 13.339844 74.171875 13.339844 75.382812 13.339844 C 76.003906 13.339844 76.621094 13.339844 77.238281 13.339844 C 77.804688 13.339844 78.375 13.339844 78.941406 13.339844 C 79.144531 13.339844 79.347656 13.339844 79.554688 13.339844 C 81.144531 13.335938 82.710938 13.414062 84.253906 13.835938 L 84.523438 13.910156 C 85.625 14.222656 86.5 14.726562 87.332031 15.519531 C 87.941406 16.175781 88.34375 16.839844 88.566406 17.707031 C 88.609375 17.914062 88.652344 18.121094 88.691406 18.328125 L 88.75 18.589844 C 88.8125 18.957031 88.8125 19.304688 88.8125 19.675781 L 88.816406 20.089844 L 88.800781 20.417969 L 88.691406 20.53125 C 88.476562 20.539062 88.265625 20.542969 88.050781 20.539062 L 87.660156 20.539062 L 87.25 20.535156 L 86.835938 20.535156 C 86.496094 20.535156 86.160156 20.53125 85.820312 20.53125 L 85.796875 20.332031 C 85.761719 20.03125 85.722656 19.730469 85.683594 19.429688 L 85.644531 19.117188 C 85.558594 18.457031 85.425781 17.890625 85.046875 17.335938 C 84.835938 17.109375 84.835938 17.109375 84.585938 16.96875 L 84.355469 16.820312 C 83.539062 16.421875 82.707031 16.261719 81.8125 16.160156 L 81.449219 16.117188 C 80.054688 15.96875 78.667969 15.964844 77.269531 15.96875 L 76.425781 15.96875 C 75.839844 15.96875 75.257812 15.96875 74.671875 15.96875 C 74.003906 15.972656 73.332031 15.96875 72.660156 15.96875 C 72.007812 15.96875 71.355469 15.96875 70.703125 15.96875 C 70.425781 15.96875 70.152344 15.96875 69.878906 15.96875 C 67.289062 15.925781 67.289062 15.925781 64.867188 16.75 C 64.296875 17.109375 63.882812 17.496094 63.546875 18.085938 C 62.46875 20.230469 62.960938 23.355469 62.984375 25.707031 L 62.984375 26.042969 C 62.992188 26.757812 63 27.472656 63.011719 28.183594 C 63.015625 28.417969 63.019531 28.652344 63.023438 28.886719 C 63.023438 29.214844 63.03125 29.546875 63.039062 29.875 L 63.039062 30.171875 C 63.058594 30.980469 63.234375 31.707031 63.589844 32.441406 L 63.753906 32.703125 L 63.921875 32.976562 C 64.085938 33.226562 64.085938 33.226562 64.417969 33.421875 L 64.417969 33.640625 C 64.796875 33.792969 65.179688 33.945312 65.5625 34.089844 L 65.859375 34.203125 C 66.695312 34.460938 67.546875 34.429688 68.414062 34.433594 L 68.855469 34.433594 C 69.335938 34.4375 69.816406 34.4375 70.300781 34.4375 L 70.800781 34.441406 C 71.582031 34.441406 72.367188 34.445312 73.152344 34.445312 C 74.050781 34.445312 74.953125 34.449219 75.851562 34.453125 C 76.550781 34.457031 77.25 34.457031 77.949219 34.457031 C 78.367188 34.457031 78.78125 34.460938 79.199219 34.460938 C 81.792969 34.558594 81.792969 34.558594 84.230469 33.816406 C 84.460938 33.664062 84.640625 33.507812 84.828125 33.3125 C 84.890625 33.246094 84.953125 33.179688 85.015625 33.113281 C 85.5 32.542969 85.683594 31.945312 85.820312 31.21875 C 85.871094 30.640625 85.886719 30.066406 85.898438 29.488281 C 85.902344 29.335938 85.90625 29.179688 85.910156 29.027344 C 85.917969 28.65625 85.925781 28.285156 85.929688 27.910156 L 85.746094 27.914062 C 84.253906 27.914062 82.765625 27.917969 81.277344 27.917969 C 80.554688 27.917969 79.835938 27.917969 79.113281 27.921875 C 78.421875 27.921875 77.726562 27.921875 77.03125 27.921875 C 76.765625 27.921875 76.5 27.921875 76.234375 27.921875 C 75.863281 27.925781 75.492188 27.925781 75.121094 27.925781 L 74.214844 27.925781 L 74.015625 27.910156 L 73.90625 27.800781 C 73.894531 27.621094 73.890625 27.445312 73.890625 27.265625 L 73.890625 25.609375 L 73.90625 25.378906 L 74.015625 25.269531 C 74.210938 25.257812 74.402344 25.253906 74.597656 25.253906 L 75.847656 25.253906 C 76.25 25.253906 76.652344 25.253906 77.054688 25.253906 C 77.472656 25.253906 77.894531 25.253906 78.3125 25.253906 C 79.019531 25.253906 79.722656 25.253906 80.429688 25.253906 C 81.246094 25.253906 82.0625 25.253906 82.878906 25.253906 C 83.578125 25.253906 84.277344 25.253906 84.976562 25.253906 C 85.394531 25.253906 85.816406 25.253906 86.234375 25.253906 C 86.625 25.253906 87.019531 25.253906 87.414062 25.253906 C 87.628906 25.253906 87.839844 25.253906 88.054688 25.253906 L 88.773438 25.253906 L 89.019531 25.269531 L 89.128906 25.378906 C 89.144531 25.710938 89.152344 26.042969 89.152344 26.375 L 89.15625 26.6875 C 89.15625 26.90625 89.15625 27.125 89.15625 27.34375 C 89.160156 27.667969 89.160156 27.996094 89.164062 28.324219 C 89.175781 30.371094 89.019531 32.460938 88.070312 34.316406 C 87.605469 35.101562 87.074219 35.667969 86.289062 36.136719 C 85.089844 36.777344 83.800781 37.070312 82.441406 37.074219 L 81.542969 37.074219 L 81.046875 37.078125 C 80.597656 37.078125 80.148438 37.078125 79.699219 37.078125 L 78.855469 37.082031 C 77.972656 37.082031 77.089844 37.082031 76.210938 37.082031 C 75.195312 37.082031 74.179688 37.085938 73.167969 37.089844 C 72.378906 37.089844 71.59375 37.09375 70.808594 37.09375 C 70.339844 37.09375 69.871094 37.09375 69.402344 37.09375 C 68.960938 37.097656 68.519531 37.097656 68.078125 37.097656 C 67.917969 37.097656 67.757812 37.097656 67.59375 37.097656 C 65.886719 37.109375 64.289062 36.875 62.761719 36.066406 C 61.847656 35.488281 61.152344 34.746094 60.644531 33.792969 C 59.4375 31.195312 59.636719 28.207031 59.644531 25.398438 C 59.644531 24.972656 59.644531 24.546875 59.644531 24.117188 C 59.628906 18.851562 59.628906 18.851562 60.777344 16.5625 L 47.539062 16.5625 L 47.539062 37.167969 L 44.558594 37.167969 L 44.339844 36.945312 C 44.316406 36.679688 44.308594 36.414062 44.3125 36.144531 L 44.3125 35.894531 C 44.3125 35.613281 44.3125 35.332031 44.3125 35.050781 L 44.3125 34.449219 C 44.3125 33.902344 44.3125 33.355469 44.316406 32.808594 C 44.316406 32.238281 44.316406 31.667969 44.316406 31.097656 C 44.316406 30.015625 44.320312 28.933594 44.320312 27.851562 C 44.324219 26.390625 44.328125 24.929688 44.328125 23.46875 C 44.328125 21.167969 44.335938 18.867188 44.339844 16.5625 L 30.105469 16.5625 L 29.996094 37.167969 L 25.25 37.167969 L 24.148438 36.066406 L 23.925781 35.957031 L 23.925781 35.734375 L 23.730469 35.644531 C 23.484375 35.515625 23.328125 35.382812 23.132812 35.1875 L 22.929688 34.988281 L 22.710938 34.765625 L 22.480469 34.535156 C 22.222656 34.277344 21.96875 34.023438 21.71875 33.769531 C 21.539062 33.59375 21.363281 33.414062 21.1875 33.238281 C 20.722656 32.773438 20.257812 32.308594 19.792969 31.839844 C 19.320312 31.367188 18.847656 30.894531 18.375 30.417969 C 17.609375 29.65625 16.847656 28.890625 16.082031 28.125 L 15.882812 27.921875 L 15.707031 27.746094 C 15.589844 27.628906 15.472656 27.519531 15.355469 27.410156 L 15.210938 27.25 C 15.230469 27.03125 15.230469 27.03125 15.320312 26.808594 C 15.507812 26.566406 15.703125 26.332031 15.90625 26.101562 C 16.015625 25.976562 16.125 25.851562 16.230469 25.730469 L 16.386719 25.550781 C 16.589844 25.3125 16.785156 25.070312 16.976562 24.828125 C 17.160156 24.84375 17.160156 24.84375 17.417969 24.9375 C 17.632812 25.125 17.835938 25.320312 18.035156 25.523438 L 18.210938 25.703125 C 18.398438 25.890625 18.582031 26.082031 18.769531 26.273438 C 19.011719 26.523438 19.257812 26.769531 19.503906 27.019531 L 19.679688 27.199219 C 20.058594 27.578125 20.445312 27.9375 20.855469 28.285156 C 21.246094 28.625 21.605469 29 21.96875 29.371094 C 22.121094 29.527344 22.273438 29.679688 22.425781 29.835938 L 22.625 30.039062 C 22.824219 30.234375 22.824219 30.234375 23.070312 30.402344 L 23.265625 30.554688 L 23.265625 30.777344 L 23.460938 30.863281 C 23.730469 31.011719 23.90625 31.175781 24.121094 31.398438 L 24.359375 31.640625 C 24.519531 31.804688 24.679688 31.972656 24.839844 32.136719 C 25.261719 32.570312 25.691406 32.96875 26.164062 33.339844 L 26.460938 33.574219 L 26.6875 33.75 L 26.683594 33.472656 C 26.664062 31.242188 26.65625 29.015625 26.65625 26.785156 C 26.652344 25.707031 26.652344 24.625 26.640625 23.546875 C 26.632812 22.609375 26.628906 21.667969 26.632812 20.726562 C 26.632812 20.230469 26.632812 19.730469 26.625 19.234375 C 26.617188 18.765625 26.617188 18.296875 26.621094 17.828125 C 26.621094 17.65625 26.621094 17.484375 26.617188 17.3125 C 26.601562 16.78125 26.621094 16.304688 26.796875 15.792969 C 27.179688 15.308594 27.707031 15.003906 28.230469 14.691406 C 28.402344 14.570312 28.578125 14.445312 28.75 14.320312 C 28.894531 14.222656 29.042969 14.121094 29.1875 14.023438 L 29.417969 13.867188 C 30.011719 13.460938 30.332031 13.351562 31.039062 13.355469 " fill-opacity="1" fill-rule="nonzero"/></g><path fill="#000000" d="M 43.566406 4.003906 C 43.675781 4.449219 43.679688 4.867188 43.675781 5.324219 L 43.425781 5.417969 C 40.863281 6.359375 38.386719 7.410156 35.988281 8.710938 C 35.726562 8.851562 35.46875 8.992188 35.207031 9.132812 C 33.140625 10.238281 31.15625 11.492188 29.222656 12.816406 L 28.96875 12.992188 C 26.027344 15.007812 23.234375 17.222656 20.628906 19.660156 C 20.371094 19.902344 20.101562 20.140625 19.832031 20.371094 C 19.003906 21.085938 18.226562 21.878906 17.515625 22.714844 C 17.292969 22.96875 17.066406 23.214844 16.832031 23.464844 C 16.1875 24.152344 15.578125 24.859375 14.992188 25.597656 L 14.828125 25.800781 C 11.730469 29.628906 8.9375 34.050781 8.105469 38.96875 C 7.882812 40.621094 8.054688 42.269531 8.660156 43.820312 C 9 44.554688 9.441406 45.09375 10.027344 45.652344 L 10.238281 45.867188 C 11.199219 46.78125 12.480469 47.238281 13.742188 47.574219 C 17.257812 48.382812 21.066406 47.722656 24.480469 46.753906 C 24.675781 46.683594 24.871094 46.613281 25.070312 46.542969 C 26.105469 46.1875 27.042969 46.128906 28.128906 46.148438 C 28.304688 46.148438 28.476562 46.148438 28.648438 46.148438 C 29.097656 46.152344 29.546875 46.15625 29.996094 46.164062 C 30.457031 46.167969 30.917969 46.171875 31.378906 46.175781 C 32.277344 46.179688 33.179688 46.191406 34.078125 46.203125 L 34.078125 46.421875 C 30.097656 48.128906 26.128906 49.578125 21.832031 50.277344 L 21.570312 50.324219 C 19.246094 50.695312 16.621094 50.710938 14.328125 50.167969 L 14.089844 50.113281 C 12.183594 49.65625 10.519531 48.800781 9.070312 47.472656 C 7.984375 46.375 7.328125 44.929688 6.9375 43.449219 C 6.414062 41.425781 6.652344 39.167969 7.15625 37.167969 C 8.34375 32.929688 10.527344 29.058594 13.226562 25.597656 L 13.535156 25.195312 C 14.535156 23.910156 15.585938 22.671875 16.695312 21.484375 C 16.886719 21.28125 17.070312 21.078125 17.257812 20.878906 L 17.855469 20.238281 C 18.472656 19.574219 19.105469 18.941406 19.792969 18.347656 C 20.085938 18.089844 20.371094 17.820312 20.65625 17.550781 C 21.390625 16.859375 22.144531 16.203125 22.933594 15.570312 C 23.066406 15.464844 23.195312 15.355469 23.328125 15.246094 C 26.320312 12.777344 29.59375 10.539062 32.972656 8.628906 L 33.25 8.476562 C 41.136719 4.003906 41.136719 4.003906 43.566406 4.003906 " fill-opacity="1" fill-rule="nonzero"/><g clip-path="url(#eeea77a823)"><path fill="#c92923" d="M 0.871094 13.589844 C 1.476562 13.546875 2.085938 13.535156 2.695312 13.527344 C 2.902344 13.523438 3.105469 13.515625 3.3125 13.507812 C 4.992188 13.441406 4.992188 13.441406 5.65625 13.777344 C 5.96875 14.027344 6.230469 14.285156 6.496094 14.582031 C 6.675781 14.757812 6.859375 14.933594 7.042969 15.109375 C 7.214844 15.285156 7.390625 15.460938 7.566406 15.640625 C 8.121094 16.210938 8.679688 16.761719 9.285156 17.28125 C 9.507812 17.472656 9.714844 17.675781 9.914062 17.886719 C 10.199219 18.171875 10.484375 18.445312 10.792969 18.707031 C 11.121094 18.988281 11.429688 19.285156 11.738281 19.59375 C 12.03125 19.894531 12.332031 20.179688 12.652344 20.453125 C 13.058594 20.804688 13.453125 21.167969 13.839844 21.542969 L 14.023438 21.714844 C 14.191406 21.878906 14.191406 21.878906 14.4375 22.183594 C 14.417969 22.402344 14.417969 22.402344 14.328125 22.625 C 14.140625 22.867188 13.945312 23.101562 13.742188 23.332031 C 13.636719 23.457031 13.527344 23.582031 13.421875 23.703125 L 13.265625 23.882812 C 13.0625 24.121094 12.867188 24.363281 12.675781 24.605469 C 12.480469 24.578125 12.480469 24.578125 12.234375 24.496094 C 12.015625 24.3125 12.015625 24.3125 11.785156 24.078125 L 11.53125 23.820312 L 11.265625 23.546875 C 10.714844 22.976562 10.160156 22.425781 9.554688 21.910156 C 9.316406 21.699219 9.089844 21.476562 8.867188 21.246094 C 8.566406 20.9375 8.257812 20.644531 7.929688 20.363281 C 7.601562 20.085938 7.296875 19.789062 6.992188 19.484375 C 6.695312 19.183594 6.398438 18.894531 6.074219 18.621094 C 5.605469 18.222656 5.171875 17.78125 4.746094 17.335938 C 4.484375 17.070312 4.316406 16.902344 3.957031 16.785156 L 3.847656 37.058594 L 0.757812 37.058594 C 0.621094 36.636719 0.636719 36.25 0.640625 35.8125 L 0.640625 35.527344 C 0.640625 35.210938 0.640625 34.894531 0.644531 34.578125 L 0.648438 33.898438 C 0.648438 33.28125 0.652344 32.664062 0.65625 32.046875 C 0.660156 31.402344 0.664062 30.757812 0.664062 30.113281 C 0.671875 29.03125 0.675781 27.949219 0.679688 26.867188 C 0.6875 25.617188 0.695312 24.363281 0.699219 23.113281 C 0.703125 22.039062 0.707031 20.964844 0.714844 19.890625 C 0.71875 19.25 0.71875 18.605469 0.722656 17.964844 C 0.726562 17.363281 0.730469 16.757812 0.734375 16.15625 C 0.734375 15.933594 0.734375 15.710938 0.734375 15.488281 C 0.738281 15.1875 0.738281 14.886719 0.742188 14.585938 L 0.742188 14.3125 C 0.742188 14.109375 0.75 13.902344 0.757812 13.699219 Z M 0.871094 13.589844 " fill-opacity="1" fill-rule="nonzero"/></g><path fill="#000000" d="M 58.460938 21.523438 L 58.679688 21.523438 C 58.707031 22.203125 58.722656 22.886719 58.734375 23.566406 C 58.738281 23.796875 58.746094 24.03125 58.753906 24.261719 C 58.824219 26.117188 58.824219 26.117188 58.59375 26.707031 C 58.355469 27.128906 58.03125 27.460938 57.6875 27.800781 C 57.558594 27.960938 57.429688 28.121094 57.304688 28.28125 C 57.183594 28.429688 57.0625 28.574219 56.941406 28.71875 L 56.746094 28.957031 C 54.933594 31.128906 54.933594 31.128906 54.019531 32.015625 C 53.816406 32.21875 53.628906 32.429688 53.441406 32.648438 C 52.859375 33.324219 52.226562 33.929688 51.554688 34.511719 C 51.203125 34.820312 50.859375 35.140625 50.515625 35.460938 C 49.617188 36.292969 49.617188 36.292969 49.21875 36.652344 L 49.023438 36.828125 L 48.863281 36.945312 L 48.640625 36.945312 C 48.628906 36.375 48.617188 35.804688 48.609375 35.234375 C 48.609375 35.042969 48.605469 34.847656 48.597656 34.652344 C 48.59375 34.375 48.589844 34.09375 48.585938 33.816406 L 48.578125 33.554688 C 48.578125 33.3125 48.585938 33.105469 48.640625 32.871094 C 48.90625 32.546875 48.90625 32.546875 49.191406 32.320312 L 49.382812 32.125 C 49.703125 31.796875 50.03125 31.488281 50.378906 31.191406 C 51.183594 30.496094 51.929688 29.734375 52.621094 28.925781 C 52.84375 28.671875 53.074219 28.421875 53.308594 28.171875 C 53.855469 27.585938 54.382812 26.992188 54.886719 26.367188 C 55.082031 26.125 55.277344 25.886719 55.476562 25.648438 C 56.503906 24.414062 57.523438 23.125 58.324219 21.734375 Z M 58.460938 21.523438 " fill-opacity="1" fill-rule="nonzero"/><path fill="#e0451d" d="M 49.035156 0.65625 C 49.796875 0.960938 50.421875 1.40625 50.933594 2.050781 C 51.277344 2.539062 51.476562 3.015625 51.535156 3.609375 C 51.558594 4.402344 51.441406 5.058594 51.066406 5.765625 C 50.714844 6.277344 50.316406 6.71875 49.773438 7.027344 C 49.101562 7.308594 48.386719 7.433594 47.660156 7.40625 C 47.015625 7.316406 46.523438 7.117188 46 6.730469 C 45.488281 6.296875 45.050781 5.84375 44.792969 5.214844 C 44.574219 4.507812 44.523438 3.957031 44.675781 3.230469 C 44.851562 2.601562 45.105469 2.160156 45.550781 1.6875 L 45.722656 1.503906 C 46.164062 1.078125 46.644531 0.855469 47.222656 0.664062 C 47.847656 0.511719 48.40625 0.546875 49.035156 0.65625 " fill-opacity="1" fill-rule="nonzero"/><path fill="#000000" d="M 52.28125 2.238281 C 54.847656 2.1875 57.667969 2.296875 59.976562 3.558594 C 60.882812 4.082031 61.6875 4.695312 62.433594 5.433594 L 62.640625 5.640625 C 63.503906 6.550781 64.113281 7.71875 64.445312 8.921875 C 64.691406 10.03125 64.785156 11.128906 64.75 12.265625 C 63.980469 12.414062 63.210938 12.386719 62.433594 12.375 C 62.34375 12.070312 62.3125 11.808594 62.320312 11.492188 C 62.363281 9.867188 62.230469 8.46875 61.441406 7.003906 C 60.730469 5.867188 59.765625 5.109375 58.597656 4.476562 C 56.671875 3.5625 54.589844 3.515625 52.503906 3.453125 Z M 47.316406 42.015625 C 47.632812 42.003906 47.953125 42.003906 48.269531 42.003906 L 48.558594 42.003906 C 48.863281 42.003906 49.167969 42.007812 49.476562 42.007812 C 49.683594 42.007812 49.886719 42.007812 50.09375 42.007812 C 50.605469 42.011719 51.113281 42.011719 51.621094 42.015625 C 51.808594 42.453125 51.988281 42.863281 52.082031 43.332031 L 52.132812 43.589844 L 52.171875 43.777344 L 52.390625 43.667969 C 52.492188 43.433594 52.582031 43.195312 52.667969 42.957031 C 52.921875 42.257812 52.921875 42.257812 53.164062 42.015625 C 53.507812 42 53.507812 42 53.824219 42.015625 C 54.488281 43.28125 54.488281 43.28125 54.488281 44 L 54.707031 44 L 54.746094 43.785156 C 54.855469 43.1875 54.992188 42.671875 55.261719 42.125 L 55.371094 42.015625 C 55.589844 42.011719 55.8125 42.011719 56.03125 42.015625 L 56.144531 42.34375 C 56.039062 42.78125 55.878906 43.199219 55.730469 43.621094 L 55.609375 43.976562 L 55.488281 44.316406 L 55.378906 44.628906 L 55.261719 44.878906 L 54.929688 45.101562 L 54.15625 44.988281 L 53.496094 43.335938 C 53.269531 43.675781 53.164062 43.964844 53.039062 44.347656 L 52.921875 44.710938 L 52.832031 44.988281 L 51.730469 44.988281 C 51.480469 44.433594 51.285156 43.878906 51.109375 43.296875 C 50.992188 42.78125 50.992188 42.78125 50.738281 42.34375 L 50.625 42.785156 L 49.414062 42.785156 L 49.414062 44.988281 L 48.53125 44.988281 L 48.421875 44.878906 C 48.410156 44.722656 48.40625 44.566406 48.410156 44.410156 L 48.410156 44.125 L 48.414062 43.824219 L 48.414062 43.523438 C 48.417969 43.277344 48.417969 43.03125 48.421875 42.785156 L 47.207031 42.785156 C 47.203125 42.566406 47.203125 42.34375 47.207031 42.125 Z M 47.316406 42.015625 " fill-opacity="1" fill-rule="nonzero"/><path fill="#ea7d5f" d="M 49.304688 0.917969 C 49.863281 1.042969 50.222656 1.300781 50.636719 1.679688 C 51.019531 2.097656 51.296875 2.574219 51.464844 3.117188 C 51.589844 3.773438 51.5625 4.464844 51.390625 5.113281 C 51.296875 5.351562 51.296875 5.351562 51.179688 5.546875 C 50.855469 5.738281 50.855469 5.738281 50.652344 5.769531 C 50.09375 5.761719 49.59375 5.652344 49.082031 5.433594 C 48.605469 5.09375 48.28125 4.730469 48.035156 4.195312 C 47.980469 3.894531 47.980469 3.894531 47.980469 3.453125 L 47.757812 3.453125 C 47.8125 2.808594 47.96875 2.242188 48.308594 1.6875 C 48.644531 1.417969 48.898438 1.273438 49.304688 1.136719 Z M 49.304688 0.917969 " fill-opacity="1" fill-rule="nonzero"/><path fill="#000000" d="M 58.328125 41.988281 L 58.695312 41.980469 L 59.046875 41.980469 L 59.371094 41.976562 C 59.726562 42.023438 59.933594 42.140625 60.226562 42.34375 L 60.335938 42.457031 C 60.367188 42.796875 60.367188 43.140625 60.371094 43.480469 L 60.378906 43.773438 C 60.382812 44.039062 60.378906 44.285156 60.335938 44.550781 C 60.140625 44.828125 60.140625 44.828125 59.894531 44.988281 C 59.390625 45.144531 58.886719 45.125 58.363281 45.128906 C 58.21875 45.132812 58.21875 45.132812 58.066406 45.132812 C 57.609375 45.136719 57.289062 45.117188 56.859375 44.945312 C 56.585938 44.769531 56.585938 44.769531 56.363281 44.550781 C 56.3125 44.226562 56.324219 43.898438 56.324219 43.570312 L 56.3125 43.296875 C 56.3125 43.046875 56.320312 42.8125 56.363281 42.566406 C 56.890625 41.871094 57.523438 41.992188 58.328125 41.988281 M 15.761719 42.015625 C 16.148438 42 16.148438 42 16.535156 42.015625 L 16.644531 42.125 C 16.664062 42.28125 16.671875 42.4375 16.679688 42.59375 L 16.695312 42.878906 L 16.707031 43.179688 L 16.722656 43.480469 C 16.734375 43.726562 16.746094 43.972656 16.757812 44.21875 L 18.632812 44.328125 L 18.742188 44.769531 L 18.871094 44.527344 C 19.0625 44.171875 19.253906 43.8125 19.445312 43.453125 L 19.648438 43.074219 L 19.839844 42.714844 L 20.019531 42.378906 L 20.175781 42.125 C 20.5 41.964844 20.777344 41.945312 21.136719 41.953125 C 21.390625 42.015625 21.390625 42.015625 21.570312 42.179688 C 21.753906 42.445312 21.902344 42.71875 22.050781 43.007812 C 22.128906 43.148438 22.210938 43.289062 22.289062 43.429688 C 22.933594 44.59375 22.933594 44.59375 22.933594 44.988281 L 21.941406 44.988281 L 21.832031 44.550781 C 21.523438 44.558594 21.214844 44.570312 20.90625 44.582031 L 20.640625 44.589844 C 20.414062 44.601562 20.183594 44.628906 19.957031 44.660156 L 19.734375 44.988281 C 19.429688 45.019531 19.125 45.027344 18.820312 45.023438 L 18.546875 45.019531 C 18.257812 45.019531 17.96875 45.015625 17.679688 45.011719 C 17.484375 45.007812 17.289062 45.007812 17.09375 45.007812 C 16.613281 45.003906 16.132812 44.996094 15.652344 44.988281 C 15.648438 44.515625 15.648438 44.039062 15.644531 43.566406 L 15.644531 43.152344 L 15.640625 42.761719 L 15.640625 42.402344 L 15.652344 42.125 Z M 60.996094 42.015625 C 61.425781 41.988281 61.855469 41.996094 62.285156 41.996094 L 62.652344 41.988281 C 63.785156 41.988281 63.785156 41.988281 64.308594 42.234375 L 64.527344 42.457031 C 64.5625 42.703125 64.5625 42.703125 64.5625 42.992188 L 64.566406 43.28125 C 64.527344 43.558594 64.527344 43.558594 64.359375 43.8125 L 64.195312 44 L 64.527344 44.109375 L 64.527344 44.988281 L 63.644531 44.988281 L 63.535156 44.4375 L 61.992188 44.328125 L 61.878906 44.988281 L 60.886719 44.988281 C 60.882812 44.515625 60.882812 44.039062 60.878906 43.566406 L 60.878906 43.152344 L 60.875 42.761719 L 60.875 42.402344 L 60.886719 42.125 Z M 23.484375 42.015625 C 23.917969 41.988281 24.351562 41.996094 24.78125 41.996094 L 25.148438 41.988281 L 25.832031 41.988281 C 26.234375 42.023438 26.542969 42.148438 26.886719 42.359375 C 27.015625 42.566406 27.015625 42.566406 27.058594 42.992188 C 27.046875 43.328125 27.007812 43.46875 26.851562 43.777344 L 26.6875 44 L 26.90625 44 C 27.070312 44.324219 27.023438 44.632812 27.015625 44.988281 L 26.023438 44.988281 L 26.023438 44.328125 L 24.257812 44.328125 L 24.257812 44.988281 L 23.375 44.988281 C 23.371094 44.515625 23.371094 44.039062 23.371094 43.566406 L 23.367188 43.152344 L 23.363281 42.761719 L 23.363281 42.402344 L 23.375 42.125 Z M 70.097656 41.964844 C 70.429688 41.945312 70.757812 41.945312 71.09375 41.953125 L 71.4375 41.949219 C 71.945312 41.953125 72.269531 41.960938 72.714844 42.21875 L 72.914062 42.457031 C 72.945312 42.757812 72.945312 42.757812 72.914062 43.007812 C 72.609375 43.019531 72.609375 43.019531 72.25 43.007812 L 72.054688 42.894531 C 71.714844 42.746094 71.433594 42.765625 71.066406 42.773438 L 70.671875 42.777344 L 70.375 42.785156 L 70.265625 43.117188 L 70.679688 43.109375 C 70.859375 43.105469 71.042969 43.105469 71.222656 43.101562 L 71.496094 43.097656 C 71.878906 43.09375 72.203125 43.105469 72.578125 43.207031 C 72.800781 43.335938 72.800781 43.335938 73.023438 43.667969 C 73.046875 43.984375 73.0625 44.238281 73.023438 44.550781 C 72.886719 44.816406 72.886719 44.816406 72.691406 44.988281 C 72.207031 45.144531 71.71875 45.121094 71.214844 45.121094 L 70.9375 45.125 C 70.414062 45.125 69.980469 45.09375 69.492188 44.878906 C 69.332031 44.671875 69.332031 44.671875 69.273438 44.4375 C 69.3125 44.191406 69.3125 44.191406 69.382812 44 L 70.15625 44 L 70.265625 44.328125 L 72.03125 44.328125 L 72.03125 43.886719 L 71.726562 43.894531 C 70.949219 43.90625 70.234375 43.914062 69.492188 43.667969 C 69.324219 43.402344 69.269531 43.21875 69.222656 42.902344 C 69.273438 42.566406 69.273438 42.566406 69.472656 42.273438 C 69.824219 42.015625 69.824219 42.015625 70.097656 41.964844 M 39.042969 42.015625 C 39.300781 41.984375 39.300781 41.984375 39.621094 41.972656 L 39.941406 41.957031 C 40.257812 42.015625 40.257812 42.015625 40.539062 42.253906 C 40.894531 42.667969 41.234375 43.09375 41.570312 43.519531 C 41.785156 43.804688 41.785156 43.804688 42.132812 43.886719 L 42.132812 42.015625 L 42.902344 42.015625 L 43.015625 42.125 C 43.023438 42.335938 43.027344 42.550781 43.023438 42.761719 L 43.023438 43.152344 L 43.019531 43.566406 L 43.019531 43.976562 C 43.019531 44.316406 43.015625 44.652344 43.015625 44.988281 C 42.53125 45.023438 42.0625 45.039062 41.578125 44.988281 C 41.242188 44.746094 41.242188 44.746094 41.027344 44.417969 C 40.710938 43.957031 40.445312 43.636719 40.035156 43.226562 L 39.925781 44.988281 L 38.933594 44.988281 C 38.929688 44.515625 38.925781 44.039062 38.925781 43.566406 L 38.921875 43.152344 L 38.921875 42.761719 L 38.917969 42.402344 L 38.933594 42.125 Z M 77.855469 41.972656 L 78.140625 41.957031 C 78.429688 42.015625 78.429688 42.015625 78.707031 42.253906 C 79.066406 42.664062 79.40625 43.089844 79.742188 43.519531 C 79.957031 43.804688 79.957031 43.804688 80.304688 43.886719 L 80.304688 42.015625 L 81.078125 42.015625 L 81.1875 42.125 C 81.195312 42.335938 81.199219 42.550781 81.199219 42.761719 L 81.195312 43.152344 L 81.195312 43.566406 L 81.191406 43.976562 C 81.191406 44.316406 81.191406 44.652344 81.1875 44.988281 C 80.703125 45.03125 80.238281 45.046875 79.753906 44.988281 C 79.445312 44.816406 79.277344 44.59375 79.085938 44.300781 C 78.988281 44.171875 78.894531 44.042969 78.796875 43.914062 L 78.539062 43.558594 L 78.097656 43.117188 L 78.097656 44.988281 L 77.105469 44.988281 L 77.105469 42.125 C 77.371094 41.992188 77.5625 41.984375 77.855469 41.972656 M 43.675781 42.015625 C 43.902344 42.003906 44.132812 42 44.359375 42 L 45 42 C 45.21875 42 45.441406 42 45.664062 42 L 46.472656 42 L 46.765625 42.015625 L 46.875 42.125 L 46.875 42.785156 L 44.558594 42.785156 L 44.558594 43.226562 L 46.65625 43.226562 L 46.765625 43.777344 L 46.65625 43.886719 C 46.5 43.898438 46.34375 43.902344 46.1875 43.898438 L 45.898438 43.898438 L 45.601562 43.894531 L 45.296875 43.894531 C 45.050781 43.890625 44.804688 43.890625 44.558594 43.886719 L 44.558594 44.21875 L 46.875 44.328125 L 46.875 44.988281 L 43.566406 44.988281 L 43.558594 43.566406 L 43.554688 43.113281 L 43.554688 42.402344 L 43.566406 42.125 Z M 83.71875 41.996094 L 84.054688 41.988281 L 84.671875 41.988281 C 84.960938 42.015625 85.136719 42.082031 85.378906 42.234375 C 85.523438 42.441406 85.523438 42.441406 85.601562 42.675781 C 85.558594 42.925781 85.558594 42.925781 85.488281 43.117188 C 85.117188 43.128906 85.117188 43.128906 84.71875 43.117188 L 84.496094 42.894531 C 84.21875 42.878906 83.9375 42.875 83.65625 42.882812 L 83.417969 42.886719 C 83.226562 42.886719 83.035156 42.890625 82.84375 42.894531 L 82.84375 44.109375 C 83.195312 44.226562 83.46875 44.242188 83.84375 44.246094 L 84.199219 44.253906 L 84.496094 44.21875 L 84.71875 43.886719 C 85.117188 43.867188 85.117188 43.867188 85.488281 43.886719 C 85.574219 44.128906 85.574219 44.128906 85.601562 44.4375 C 85.414062 44.742188 85.414062 44.742188 85.160156 44.988281 C 84.695312 45.144531 84.226562 45.125 83.746094 45.128906 L 83.484375 45.132812 C 83.058594 45.136719 82.695312 45.113281 82.296875 44.960938 C 81.960938 44.769531 81.960938 44.769531 81.804688 44.578125 C 81.710938 44.21875 81.699219 43.882812 81.699219 43.507812 L 81.6875 43.074219 C 81.738281 42.675781 81.738281 42.675781 81.941406 42.355469 C 82.433594 41.878906 83.074219 41.996094 83.71875 41.996094 M 13.261719 41.980469 L 13.609375 41.972656 C 13.929688 41.96875 14.234375 41.972656 14.550781 42.015625 C 14.902344 42.21875 14.902344 42.21875 15.101562 42.457031 C 15.144531 42.75 15.144531 42.75 15.101562 43.007812 L 14.992188 43.117188 C 14.613281 43.136719 14.613281 43.136719 14.21875 43.117188 L 14 42.894531 C 13.632812 42.867188 13.632812 42.867188 13.21875 42.875 L 12.792969 42.878906 L 12.453125 42.894531 L 12.34375 43.007812 C 12.335938 43.210938 12.332031 43.414062 12.335938 43.621094 L 12.339844 43.957031 L 12.34375 44.21875 C 12.613281 44.226562 12.886719 44.234375 13.15625 44.238281 L 13.390625 44.246094 C 13.640625 44.253906 13.640625 44.253906 14 44.21875 L 14.21875 43.886719 C 14.433594 43.855469 14.433594 43.855469 14.675781 43.867188 L 15.101562 43.886719 C 15.210938 44.21875 15.210938 44.21875 15.15625 44.492188 L 14.992188 44.769531 C 14.390625 45.09375 13.894531 45.152344 13.21875 45.140625 L 12.960938 45.144531 C 12.535156 45.144531 12.253906 45.109375 11.855469 44.945312 C 11.570312 44.769531 11.570312 44.769531 11.351562 44.550781 C 11.296875 44.226562 11.308594 43.898438 11.308594 43.570312 L 11.300781 43.296875 C 11.300781 43.046875 11.304688 42.8125 11.351562 42.566406 C 11.867188 41.882812 12.46875 41.988281 13.261719 41.980469 M 65.960938 42.015625 L 66.074219 42.125 C 66.097656 42.292969 66.117188 42.460938 66.132812 42.628906 L 66.164062 42.902344 L 66.183594 43.117188 C 66.621094 42.882812 66.96875 42.671875 67.320312 42.316406 C 67.507812 42.148438 67.507812 42.148438 67.726562 42.015625 C 68.101562 41.960938 68.453125 41.972656 68.832031 42.015625 C 68.441406 42.496094 68.039062 42.917969 67.554688 43.308594 C 67.382812 43.445312 67.382812 43.445312 67.285156 43.667969 L 67.46875 43.75 C 67.777344 43.914062 68.035156 44.113281 68.304688 44.328125 L 68.605469 44.5625 L 68.832031 44.769531 L 68.832031 44.988281 C 68.445312 45.058594 68.113281 45.066406 67.726562 44.988281 C 67.347656 44.757812 67.027344 44.511719 66.6875 44.226562 C 66.414062 43.980469 66.414062 43.980469 66.074219 43.886719 L 66.074219 44.988281 L 65.078125 44.988281 L 65.078125 42.125 C 65.40625 42.015625 65.625 41.996094 65.960938 42.015625 " fill-opacity="1" fill-rule="nonzero"/><path fill="#eb9c82" d="M 50.199219 2.035156 L 50.40625 2.128906 L 50.566406 2.355469 L 50.738281 2.570312 C 51.027344 2.609375 51.027344 2.609375 51.289062 2.570312 C 51.378906 3.082031 51.425781 3.5 51.289062 4.003906 C 51.101562 4.28125 50.898438 4.363281 50.597656 4.527344 C 50.183594 4.664062 50.183594 4.664062 49.785156 4.664062 C 49.414062 4.554688 49.414062 4.554688 49.089844 4.347656 C 48.863281 4.003906 48.863281 4.003906 48.808594 3.714844 C 48.792969 3.394531 48.800781 3.109375 48.863281 2.792969 C 49.113281 2.4375 49.316406 2.289062 49.695312 2.089844 C 49.964844 2.019531 49.964844 2.019531 50.199219 2.035156 " fill-opacity="1" fill-rule="nonzero"/><path fill="#e25b38" d="M 47.539062 1.6875 L 47.867188 1.800781 L 47.867188 2.019531 L 48.089844 2.019531 L 47.984375 2.488281 L 47.925781 2.75 C 47.875 2.984375 47.816406 3.21875 47.757812 3.453125 L 47.980469 3.453125 L 48.023438 3.667969 C 48.148438 4.164062 48.285156 4.59375 48.621094 4.988281 C 49 5.332031 49.382812 5.429688 49.875 5.546875 C 50.382812 5.644531 50.382812 5.644531 50.894531 5.609375 L 51.066406 5.546875 C 50.960938 5.867188 50.859375 6.082031 50.632812 6.339844 C 49.941406 6.953125 49.941406 6.953125 49.460938 7.089844 L 49.191406 7.089844 L 48.972656 6.757812 L 49.304688 6.648438 L 49.523438 6.757812 C 49.640625 6.46875 49.640625 6.46875 49.632812 6.316406 L 49.421875 6.246094 C 48.710938 5.992188 48.144531 5.6875 47.648438 5.105469 C 47.367188 4.652344 47.214844 4.253906 47.179688 3.722656 L 47.207031 3.453125 L 47.425781 3.5625 C 47.433594 3.175781 47.433594 2.820312 47.359375 2.441406 C 47.316406 2.128906 47.316406 2.128906 47.421875 1.867188 Z M 47.539062 1.6875 " fill-opacity="1" fill-rule="nonzero"/><path fill="#000000" d="M 32.421875 42.015625 C 32.808594 41.953125 33.144531 41.933594 33.527344 42.015625 C 33.800781 42.246094 34.003906 42.492188 34.222656 42.777344 L 34.410156 43.007812 L 34.738281 43.117188 L 34.808594 42.9375 C 35.023438 42.566406 35.261719 42.253906 35.621094 42.015625 C 35.9375 41.960938 36.179688 41.980469 36.503906 42.015625 C 36.488281 42.195312 36.488281 42.195312 36.394531 42.457031 C 36.144531 42.738281 35.886719 43.007812 35.617188 43.269531 C 35.34375 43.554688 35.1875 43.746094 35.089844 44.128906 L 35.070312 44.4375 C 35.035156 44.621094 34.996094 44.804688 34.960938 44.988281 L 34.078125 44.988281 L 34.089844 44.789062 C 34.085938 44.464844 34.054688 44.199219 33.96875 43.886719 C 33.742188 43.578125 33.496094 43.316406 33.226562 43.042969 C 32.914062 42.722656 32.671875 42.386719 32.421875 42.015625 M 29.113281 42.015625 C 29.351562 42.003906 29.585938 42.003906 29.824219 42.003906 L 30.261719 42.003906 L 30.71875 42.007812 C 30.875 42.007812 31.027344 42.007812 31.179688 42.007812 C 31.558594 42.011719 31.933594 42.011719 32.3125 42.015625 L 32.421875 42.785156 L 31.097656 42.785156 L 31.097656 44.988281 L 30.214844 44.988281 L 30.105469 42.894531 L 29.003906 42.785156 C 28.996094 42.566406 29 42.34375 29.003906 42.125 Z M 29.113281 42.015625 " fill-opacity="1" fill-rule="nonzero"/><path fill="#fefefe" d="M 57.46875 42.785156 C 57.761719 42.757812 58.054688 42.746094 58.347656 42.75 L 58.597656 42.75 C 58.808594 42.753906 59.019531 42.769531 59.230469 42.785156 L 59.453125 43.007812 C 59.476562 43.238281 59.476562 43.238281 59.472656 43.503906 L 59.472656 43.765625 C 59.453125 44 59.453125 44 59.34375 44.21875 C 58.988281 44.335938 58.722656 44.347656 58.347656 44.347656 L 57.996094 44.355469 C 57.6875 44.328125 57.6875 44.328125 57.355469 44.109375 C 57.292969 43.882812 57.292969 43.882812 57.265625 43.621094 L 57.238281 43.359375 L 57.246094 43.117188 Z M 57.46875 42.785156 " fill-opacity="1" fill-rule="nonzero"/><path fill="#000000" d="M 75.671875 42.015625 C 76.058594 42 76.058594 42 76.441406 42.015625 L 76.554688 42.125 C 76.5625 42.335938 76.566406 42.550781 76.5625 42.761719 L 76.5625 43.152344 L 76.558594 43.566406 L 76.558594 43.976562 C 76.558594 44.316406 76.554688 44.652344 76.554688 44.988281 L 75.5625 44.988281 C 75.558594 44.515625 75.554688 44.039062 75.554688 43.566406 L 75.550781 43.152344 L 75.550781 42.761719 L 75.546875 42.402344 L 75.5625 42.125 Z M 27.679688 42.015625 C 27.9375 42.046875 28.195312 42.082031 28.449219 42.125 C 28.558594 42.75 28.574219 43.355469 28.566406 43.992188 L 28.566406 44.285156 C 28.566406 44.519531 28.5625 44.753906 28.5625 44.988281 L 27.566406 44.988281 C 27.566406 44.515625 27.5625 44.039062 27.5625 43.566406 L 27.558594 43.152344 L 27.558594 42.761719 L 27.554688 42.402344 L 27.566406 42.125 Z M 27.679688 42.015625 " fill-opacity="1" fill-rule="nonzero"/><path fill="#fefefe" d="M 24.367188 42.785156 C 24.625 42.773438 24.882812 42.773438 25.140625 42.773438 L 25.570312 42.773438 L 25.914062 42.785156 L 26.023438 42.894531 C 26.027344 43.078125 26.027344 43.265625 26.023438 43.449219 C 25.660156 43.566406 25.390625 43.570312 25.011719 43.566406 L 24.648438 43.5625 L 24.367188 43.558594 C 24.328125 43.339844 24.289062 43.117188 24.257812 42.894531 Z M 61.878906 42.785156 C 62.132812 42.785156 62.386719 42.78125 62.636719 42.78125 L 63.066406 42.777344 C 63.425781 42.785156 63.425781 42.785156 63.644531 42.894531 L 63.535156 43.449219 C 63.191406 43.5625 62.945312 43.574219 62.582031 43.570312 L 62.253906 43.570312 L 61.992188 43.558594 L 61.878906 43.449219 C 61.875 43.226562 61.875 43.007812 61.878906 42.785156 " fill-opacity="1" fill-rule="nonzero"/><path fill="#b13430" d="M 29.996094 36.835938 L 29.996094 37.167969 L 25.25 37.167969 L 25.25 36.945312 L 29.058594 36.851562 C 29.75 36.835938 29.75 36.835938 29.996094 36.835938 " fill-opacity="1" fill-rule="nonzero"/><path fill="#e25b38" d="M 48.863281 0.699219 L 49.414062 0.808594 C 49.304688 1.136719 49.304688 1.136719 49.128906 1.292969 L 48.921875 1.433594 L 48.71875 1.582031 L 48.53125 1.6875 L 48.308594 1.6875 L 48.199219 2.019531 C 47.980469 1.800781 47.980469 1.800781 47.757812 1.46875 C 48 1.25 48 1.25 48.308594 1.027344 C 48.621094 1 48.621094 1 48.863281 1.027344 Z M 48.863281 0.699219 " fill-opacity="1" fill-rule="nonzero"/><path fill="#b13430" d="M 47.539062 36.835938 L 47.539062 37.167969 L 44.558594 37.167969 L 44.449219 36.945312 L 46.277344 36.875 L 46.667969 36.859375 L 47.027344 36.847656 C 47.199219 36.839844 47.367188 36.835938 47.539062 36.835938 " fill-opacity="1" fill-rule="nonzero"/><path fill="#000000" d="M 86.371094 44.21875 L 87.253906 44.21875 L 87.253906 44.988281 L 86.371094 44.988281 Z M 86.371094 44.21875 " fill-opacity="1" fill-rule="nonzero"/><path fill="#fefefe" d="M 20.726562 42.894531 L 21.058594 43.007812 C 21.246094 43.273438 21.246094 43.273438 21.390625 43.558594 L 21.390625 43.777344 L 20.398438 43.777344 C 20.484375 43.4375 20.566406 43.199219 20.726562 42.894531 " fill-opacity="1" fill-rule="nonzero"/><path fill="#e1532f" d="M 47.539062 1.6875 L 47.867188 1.800781 C 47.839844 2.019531 47.800781 2.242188 47.757812 2.460938 L 47.539062 2.679688 L 47.316406 2.570312 C 47.414062 1.9375 47.414062 1.9375 47.539062 1.6875 " fill-opacity="1" fill-rule="nonzero"/><path fill="#e1512c" d="M 49.964844 6.648438 L 49.855469 6.976562 L 49.191406 7.089844 L 48.972656 6.757812 C 49.296875 6.59375 49.605469 6.640625 49.964844 6.648438 " fill-opacity="1" fill-rule="nonzero"/></svg>
